<svg viewBox="0 0 400 400" xmlns="http://www.w3.org/2000/svg"><style>@keyframes orbit-cw{from{transform:rotate(0deg)}to{transform:rotate(360deg)}}@keyframes orbit-ccw{from{transform:rotate(0deg)}to{transform:rotate(-360deg)}}@keyframes pulse-ring{0%,100%{opacity:.04}50%{opacity:.14}}@keyframes blink{0%,100%{opacity:.9}50%{opacity:.25}}@keyframes dash-spin{from{stroke-dashoffset:0}to{stroke-dashoffset:-40}}.orbit-cw{transform-origin:200px 200px;animation:orbit-cw 22s linear infinite}.orbit-ccw{transform-origin:200px 200px;animation:orbit-ccw 32s linear infinite}.pulse-circle{animation:pulse-ring 3s ease-in-out infinite}.blink{animation:blink 2.4s ease-in-out infinite}.dash-ring{animation:dash-spin 14s linear infinite}</style><circle cx="200" cy="200" r="155" fill="none" stroke="#C8F542" stroke-width="0.5" opacity="0.12"/><circle cx="200" cy="200" r="100" fill="none" stroke="#C8F542" stroke-width="0.5" opacity="0.12"/><circle cx="200" cy="200" r="50" fill="none" stroke="#C8F542" stroke-width="0.5" opacity="0.18" stroke-dasharray="3 6" class="dash-ring"/><circle cx="200" cy="200" r="34" fill="none" stroke="#C8F542" stroke-width="18" class="pulse-circle"/><g class="orbit-cw"><circle cx="200" cy="45" r="5" fill="#C8F542" opacity="0.9"/><circle cx="355" cy="200" r="4" fill="#C8F542" opacity="0.7"/><circle cx="200" cy="355" r="5" fill="#C8F542" opacity="0.9"/><circle cx="45" cy="200" r="4" fill="#C8F542" opacity="0.7"/></g><g class="orbit-ccw"><circle cx="200" cy="100" r="3" fill="#C8F542" opacity="0.5"/><circle cx="300" cy="200" r="2.5" fill="#C8F542" opacity="0.4"/><circle cx="200" cy="300" r="3" fill="#C8F542" opacity="0.5"/><circle cx="100" cy="200" r="2.5" fill="#C8F542" opacity="0.4"/></g><rect x="184" y="200" width="32" height="24" rx="3" ry="3" fill="white" stroke="white" stroke-width="1.5" stroke-linecap="round" stroke-linejoin="round"/><path d="M191,200 L191,192 Q191,182 200,182 Q209,182 209,192 L209,200" fill="none" stroke="white" stroke-width="2" stroke-linecap="round" stroke-linejoin="round"/><circle cx="200" cy="210" r="3.5" fill="none" stroke="#C8F542" stroke-width="1.5"/><line x1="200" y1="213" x2="200" y2="219" stroke="#C8F542" stroke-width="1.5" stroke-linecap="round"/><circle cx="200" cy="200" r="1.5" fill="#C8F542" class="blink"/></svg>
